<?xml version="1.0" encoding="utf-8"?>
<!-- Generator: Adobe Illustrator 19.2.1, SVG Export Plug-In . SVG Version: 6.00 Build 0)  -->
<svg version="1.1" id="Layer_1" xmlns="http://www.w3.org/2000/svg" xmlns:xlink="http://www.w3.org/1999/xlink" x="0px" y="0px"
	 viewBox="0 0 137.0296783 172.4913788" enable-background="new 0 0 137.0296783 172.4913788" xml:space="preserve">
<linearGradient id="SVGID_1_" gradientUnits="userSpaceOnUse" x1="107.3047028" y1="155.9997864" x2="28.2038765" y2="18.9931335">
	<stop  offset="0" style="stop-color:#F2A111"/>
	<stop  offset="1" style="stop-color:#FDBC11"/>
</linearGradient>
<path fill="url(#SVGID_1_)" d="M96.7229996,15.4589548H38.7855759c-9.1818886,0-16.6239929,7.4426317-16.6239929,16.6239929
	v110.8270111c0,9.1813812,7.4421043,16.6239929,16.6239929,16.6239929h57.9374237
	c9.1818924,0,16.6240005-7.4426117,16.6240005-16.6239929V32.0829468
	C113.3470001,22.9015865,105.904892,15.4589548,96.7229996,15.4589548z M55.1341858,23.3578281h25.2404938
	c1.0457077,0,1.8938141,0.847538,1.8938141,1.8943787c0,1.0457191-0.8481064,1.8932552-1.8938141,1.8932552H55.1341858
	c-1.0457649,0-1.8938179-0.8475361-1.8938179-1.8932552C53.2403679,24.2053661,54.0884209,23.3578281,55.1341858,23.3578281z
	 M71.3371887,153.8244781h-7.1655121c-2.7704773,0-5.0158615-2.2459717-5.0158615-5.0158691
	s2.2453842-5.0158539,5.0158615-5.0158539h7.1655121c2.7699051,0,5.0158615,2.2459564,5.0158615,5.0158539
	S74.1070938,153.8244781,71.3371887,153.8244781z M99.6913605,138.0810394H35.8169327V35.0443115h63.8744278V138.0810394z"/>
</svg>
