<?xml version="1.0" encoding="utf-8"?>
<!-- Generator: Adobe Illustrator 19.2.1, SVG Export Plug-In . SVG Version: 6.00 Build 0)  -->
<svg version="1.1" id="Layer_1" xmlns="http://www.w3.org/2000/svg" xmlns:xlink="http://www.w3.org/1999/xlink" x="0px" y="0px"
	 viewBox="0 0 47 47" enable-background="new 0 0 47 47" xml:space="preserve">
<path fill="#FFFFFF" d="M28.3673973,8.3483076c-3.4763832,1.2659292-5.6737213,4.5280437-5.424469,8.098443l0.0830822,1.3774357
	l-1.3905525-0.168354c-5.0615234-0.6471767-9.484622-2.8401375-13.2408657-6.52423L6.5580125,9.3037672l-0.4700751,1.3490105
	c-1.0013733,3.0084934-0.3607564,6.1875238,1.7250724,8.3258276c1.1128793,1.1806583,0.861443,1.3490105-1.0560331,0.6471748
	c-0.6668539-0.2252007-1.2528095-0.3935547-1.3074698-0.3082829c-0.1945906,0.1967754,0.4722633,2.7548695,1.0013728,3.7693596
	c0.7237005,1.4080429,2.1973367,2.7832947,3.8109021,3.6010075l1.364316,0.6471748l-1.6157513,0.0240536
	c-1.5567198,0-1.6135664,0.0284252-1.4452143,0.6209393c0.5553465,1.8278351,2.7526827,3.7693634,5.2014551,4.6133137
	l1.7250719,0.590332l-1.5020599,0.9007988c-2.2257586,1.2965393-4.8406982,2.0267982-7.4556384,2.0792732
	c-1.2528095,0.0284233-2.2826066,0.1399269-2.2826066,0.2252007c0,0.2798576,3.3954859,1.8540688,5.3676233,2.4750099
	c5.9251566,1.8278351,12.963191,1.0385399,18.2477264-2.081459c3.7562447-2.221386,7.5102978-6.6379204,9.2637959-10.9145298
	c0.9467125-2.2760487,1.8912392-6.438961,1.8912392-8.4351482c0-1.2943516,0.0830841-1.4627037,1.639801-3.0084925
	c0.9182892-0.9007978,1.7797318-1.8846817,1.9480896-2.1645403c0.2798615-0.5356684,0.2492485-0.5356684-1.1675415-0.0568466
	c-2.3635025,0.8439512-2.6980209,0.7324457-1.5282936-0.5334835c0.8614388-0.9007978,1.8912392-2.5318565,1.8912392-3.0084934
	c0-0.0830832-0.4176064,0.0568466-0.8898659,0.3082829c-0.5006866,0.2820454-1.6135712,0.7040215-2.4487762,0.9554596
	l-1.5020599,0.4788218l-1.3621254-0.9314117c-0.752121-0.5050592-1.8059692-1.0691519-2.3634987-1.237505
	C31.8175449,7.8410635,29.6486301,7.8979101,28.3673973,8.3483076z"/>
</svg>
