<?xml version="1.0" encoding="utf-8"?>
<!-- Generator: Adobe Illustrator 19.2.1, SVG Export Plug-In . SVG Version: 6.00 Build 0)  -->
<svg version="1.1" id="Layer_1" xmlns="http://www.w3.org/2000/svg" xmlns:xlink="http://www.w3.org/1999/xlink" x="0px" y="0px"
	 viewBox="0 0 47 47" enable-background="new 0 0 47 47" xml:space="preserve">
<path id="path12604_3_" fill="#FFFFFF" d="M23.3294373,5.3393092c-2.3302364,0.0159521-4.7398357,0.6343946-6.6292286,2.1283455
	c-1.4149075,1.1168828-2.5274029,2.597055-3.2286901,4.2506614c-0.0010509,0.0040045-0.0020552,0.0080271-0.0030098,0.0120592
	c-0.6679106,1.7038393-0.6060572,3.5171671-0.5155058,5.1972618c0,0-0.0000477,0.001997,0,0.0030098
	c0.0550318,1.1808872,0.1851435,2.3241119,0.075366,3.4095726c-0.0088654,0.0422554-0.0092602,0.0528431-0.0150728,0.0783825
	c-0.5252886,0.0952148-1.097044,0.0606804-1.6640892-0.0482349H11.340168
	c-0.388422-0.0668583-0.8033905-0.226923-1.2721844-0.3587437c-0.007987-0.0022182-0.0160284-0.0042248-0.0241165-0.0060291
	c-0.4549799-0.1040173-0.9022179,0.0284595-1.2450523,0.2833767c-0.0044088,0.0028553-0.0105963,0.0061264-0.0150728,0.0090389
	c-0.0068493,0.0052109-0.0143404,0.0097675-0.0211029,0.0150738c-0.2790508,0.1847973-0.6612921,0.4950771-0.6813116,1.0340271
	c-0.0008688,0.0353603,0.0021706,0.0708141,0.0090389,0.1055126c0.0602589,0.3167057,0.2550707,0.5482731,0.4280806,0.6993999
	c0.1730089,0.151125,0.336462,0.2509346,0.4371252,0.3285961c0.0078516,0.006279,0.015892,0.0123119,0.0241165,0.0180874
	c0.8486328,0.5725574,1.7878408,0.8241329,2.60466,1.1425552h0.0030107c0.565505,0.2505589,1.0569048,0.6401749,1.1696854,1.1304932
	c0.1408215,0.620018-0.1202774,1.33181-0.4612427,2.0228329v0.0030098
	c-0.9196701,1.8315258-2.2854338,3.4242687-3.9642687,4.5913162c-0.8801575,0.6072826-1.8730912,1.0606289-2.9091454,1.3415356
	c-0.0142918,0.0043678-0.0283804,0.0093956-0.0422053,0.0150719c-0.2125926,0.0800591-0.7166905,0.1324005-1.0340261,0.6149902
	c-0.0225534,0.0337029-0.0408335,0.0702629-0.0542636,0.1085281c-0.1070061,0.3103218,0.0150685,0.6435051,0.1658058,0.8260155
	c0.1439414,0.1742821,0.3045206,0.275692,0.4431539,0.3497009c0.007091,0.0041466,0.013998,0.007946,0.0211029,0.0120583
	c0.8723454,0.5041504,1.8250561,0.722702,2.6951008,0.9465981c0.004003,0.0010529,0.0080261,0.0020561,0.0120583,0.0030098
	c0.6268649,0.1427536,1.2047753,0.2190132,1.676147,0.4220505c0.023078,0.0388145,0.0702801,0.1985664,0.1808796,0.4642563
	c0.1544962,0.4823151,0.2247267,1.0518684,0.4039631,1.6490173c0.0490103,0.1652908,0.1931553,0.2986259,0.3617592,0.3346252
	c0.3959084,0.0841141,0.613657-0.0517235,0.6481504-0.0542641c0.0161657-0.001194,0.0322704-0.003212,0.048234-0.0060272
	c1.4566984-0.2553329,2.9103079-0.4817505,4.2446289-0.1447029c0.0009642,0.0002861,0.0020256-0.0002899,0.0020256-0.0002899
	c1.4013081,0.3691521,2.6182537,1.3426018,3.989357,2.179882c0.0024109,0.0014877,0.0035686,0.0045433,0.0059795,0.006031
	v-0.0030098c0.9101086,0.577507,1.9621105,1.143013,3.1774445,1.1847572v0.0030098c0,0,0.008007-0.0000954,0.0120583,0
	c0.9179516,0.0519943,1.818924-0.0063362,2.6981106-0.0663223h0.0150776
	c0.7528248-0.0745697,1.4837608-0.3251038,2.1223164-0.7355728c0.0090675-0.0051613,0.0180969-0.0098953,0.0271263-0.0150757
	c1.4417458-0.826107,2.7229118-1.8215561,4.1270657-2.4448814c0,0,0.0040512-0.0022888,0.0059834-0.0030098
	c0.45541-0.1651154,1.0243931-0.1558037,1.6580601-0.198967c0.0059814-0.0001945,0.0120583,0.0001945,0.0180855,0
	c1.1627121-0.0358963,2.3276329,0.0264435,3.4819183,0.1808777c0.0399857,0.0050354,0.0806007,0.0050354,0.1205864,0
	c0.1515923-0.0179825,0.3172798-0.1197701,0.397934-0.2230835c0.080658-0.1033134,0.1038971-0.187458,0.1205864-0.2472
	c0.0333977-0.1194916,0.0643463-0.1766396,0.0090675-0.0783844c0.0175285-0.0304909,0.0317116-0.0629005,0.0422058-0.0964661
	c0.2119522-0.7022972,0.3272705-1.3378296,0.6692543-1.7334251c0.1536636-0.150219,0.4180984-0.2256279,0.7174873-0.2200699
	c0.0221405,0.0004807,0.0443192-0.0004845,0.0663223-0.0030098c1.0035095-0.1187859,1.9105873-0.4810867,2.7704697-0.7898407
	c0.0101852-0.003685,0.0202446-0.0077057,0.030159-0.0120621c0.3194351-0.1392479,0.795414-0.2990189,1.1214485-0.7566795
	c0.0017357-0.002449,0.0042458-0.0035591,0.0059814-0.0060272l-0.0029907-0.0030098
	c0.2742424-0.3832245,0.1469231-0.9091911-0.2411728-1.1485825l0.0059853-0.006031
	c-0.0123024-0.0083618-0.0238686-0.0131149-0.0361786-0.0211029c-0.0032768-0.0017929-0.0056877-0.0042839-0.0090675-0.0060272
	v0.003006c-0.4655495-0.299057-0.932003-0.3406219-1.2269554-0.4491806
	c-0.0059929-0.0021324-0.0120201-0.0041389-0.0180893-0.006031c-1.9956703-0.6401367-3.7215576-2.0182362-5.0103531-3.6959648
	c-0.7155304-0.9349079-1.320652-1.9507961-1.7213745-3.0357552c-0.0013504-0.0039539-0.0017357-0.0081043-0.0029907-0.0120583
	c-0.1568756-0.4711113-0.1647377-0.9848537,0.0663223-1.2963009c0.0030594-0.0029716,0.0060883-0.0059834,0.0090675-0.0090389
	c0.360466-0.5178814,1.021946-0.8507385,1.7274017-1.1124077c0.0028954-0.0010033,0.006176-0.0020046,0.0090675-0.0030098
	c0.7796555-0.2712288,1.6328621-0.5871925,2.3363533-1.2118893c0.003067-0.0029736,0.0060883-0.0059814,0.0090675-0.0090408
	c0.1088448-0.1029282,0.2397423-0.2369289,0.3376389-0.4371243c0.0979042-0.2001953,0.1443253-0.5122814,0.0150795-0.7838097
	c0.0000038-0.0010033,0.0000038-0.0020065,0.0000038-0.0020065c-0.2030144-0.4192448-0.5570145-0.6344376-0.8199883-0.790844
	l-0.0019989-0.0000019c-0.4415932-0.2571754-0.954258-0.273859-1.3997917-0.1296272l-0.0020256-0.0002899
	c-0.0039558,0.0012646-0.0070419,0.0023155-0.0100327,0.0032997c-0.4813042,0.1464748-0.8742409,0.321619-1.2390289,0.3677883
	c-0.0080948,0.0018044-0.0161324,0.0038109-0.0241165,0.0060291c-0.5183945,0.0923939-1.0203819,0.114584-1.4108582-0.0301476
	c-0.0036659-0.058506-0.0055008-0.1726913-0.0210991-0.3135223h0.0029945
	c-0.0288277-0.8600502,0.0440369-1.7466698,0.0572701-2.6649551c0.0000305-0.0020428-0.0000305-0.0039845,0-0.0060291
	c0.039669-1.3952465,0.0959702-2.831646-0.1085281-4.277792c-0.0008659-0.0070524-0.0018425-0.0140915-0.0029907-0.0211029
	c-0.44524-2.4394598-1.9956532-4.5405369-3.9612541-5.9388666c-1.4289074-1.013876-3.1253242-1.5797567-4.8475609-1.7394552
	l-0.0020256,0.0000963c-0.5789318-0.0584478-1.1560936-0.0791478-1.7313766-0.0724478L23.3294373,5.3393092z"/>
</svg>
