<?xml version="1.0" encoding="utf-8"?>
<!-- Generator: Adobe Illustrator 19.2.1, SVG Export Plug-In . SVG Version: 6.00 Build 0)  -->
<svg version="1.1" id="Layer_1" xmlns="http://www.w3.org/2000/svg" xmlns:xlink="http://www.w3.org/1999/xlink" x="0px" y="0px"
	 viewBox="0 0 47 47" enable-background="new 0 0 47 47" xml:space="preserve">
<path fill="#FFFFFF" d="M35.0422134,41.771286c-1.3746948,1.3217087-4.1959896,2.303627-6.8999901,2.3493347
	c-0.1021156,0.00177-0.2022686,0.0026398-0.3028488,0.0026398h-0.0008755
	c-8.8939934-0.0004349-11.2669888-6.7897224-11.2669888-10.8014984V20.9938946c0-0.1016998-0.082449-0.1841621-0.1841698-0.1841621
	h-4.3006172c-0.1017208,0-0.1841707-0.0824509-0.1841707-0.1841621v-5.6158876c0-0.0751009,0.0469971-0.1420374,0.1169958-0.1692839
	c4.5965805-1.7893324,7.1635208-5.3447962,7.8387585-10.8440971c0.037632-0.3054838,0.2896385-0.3138475,0.2922802-0.3138475
	h5.740839c0.1017113,0,0.1841621,0.0824413,0.1841621,0.1841538v9.8701973c0,0.1017046,0.0824566,0.1841545,0.1841621,0.1841545
	h7.1461487c0.1017227,0,0.1841698,0.0824661,0.1841698,0.1841698v6.5204411c0,0.1017113-0.0824471,0.1841621-0.1841698,0.1841621
	h-7.1769543c-0.1017132,0-0.1841621,0.0824623-0.1841621,0.1841736l0.0002155,11.716013
	c0.0422554,2.6379852,1.3189888,3.9752312,3.7947617,3.9752312c0.9975796,0,2.1401443-0.2320366,3.1833687-0.6305504
	c0.0974731-0.0372429,0.2050896,0.0123482,0.2384377,0.1112251l1.8256454,5.4117966
	C35.1102219,41.6458206,35.0940971,41.721405,35.0422134,41.771286z"/>
</svg>
