<?xml version="1.0" encoding="utf-8"?>
<!-- Generator: Adobe Illustrator 19.2.1, SVG Export Plug-In . SVG Version: 6.00 Build 0)  -->
<svg version="1.1" id="Layer_1" xmlns="http://www.w3.org/2000/svg" xmlns:xlink="http://www.w3.org/1999/xlink" x="0px" y="0px"
	 viewBox="0 0 239.2324677 159.5339508" enable-background="new 0 0 239.2324677 159.5339508" xml:space="preserve">
<g>
	
		<linearGradient id="SVGID_1_" gradientUnits="userSpaceOnUse" x1="121.3291397" y1="138.7743225" x2="121.3291397" y2="20.5585918">
		<stop  offset="0" style="stop-color:#CB005B"/>
		<stop  offset="0.1080288" style="stop-color:#D4005D"/>
		<stop  offset="0.4344716" style="stop-color:#EC0062"/>
		<stop  offset="0.7395898" style="stop-color:#FA0065"/>
		<stop  offset="1" style="stop-color:#FF0066"/>
	</linearGradient>
	<path fill="url(#SVGID_1_)" d="M216.3473053,29.9806023l-89.3980713,79.3352661
		c-2.9997787,2.6668549-8.2333908,2.6700516-11.2383804,0.0031967L26.3109779,29.9806023
		c1.3716602-5.3898888,6.791584-9.4220104,13.2792358-9.4220104h163.476059
		C209.5557251,20.5585918,214.9756622,24.5907135,216.3473053,29.9806023 M107.6828461,116.4421158L73.1368408,85.783432
		l-47.1173897,41.8154526c0.5285587,6.2471237,6.3944931,11.1754379,13.5707626,11.1754379h163.476059
		c7.177887,0,13.0420227-4.9283142,13.5707703-11.1754379l-47.1155853-41.8140182l-34.5460205,30.6572495
		c-3.6443329,3.2356873-8.4898376,5.0172119-13.6462936,5.0172119
		C116.1726913,121.4593277,111.327179,119.677803,107.6828461,116.4421158 M177.5492706,78.6603851l39.1404572,34.7375717
		V43.9242477L177.5492706,78.6603851z M65.1124344,78.6603851L25.9685555,43.9196205v69.4783325L65.1124344,78.6603851z"/>
</g>
</svg>
