<?xml version="1.0" encoding="utf-8"?>
<!-- Generator: Adobe Illustrator 19.2.1, SVG Export Plug-In . SVG Version: 6.00 Build 0)  -->
<svg version="1.1" id="Layer_1" xmlns="http://www.w3.org/2000/svg" xmlns:xlink="http://www.w3.org/1999/xlink" x="0px" y="0px"
	 viewBox="0 0 47 47" enable-background="new 0 0 47 47" xml:space="preserve">
<g>
	<g>
		<path fill="#FFFFFF" d="M24.3714714,22.9939842c3.0501537-0.6325207,5.5802345-3.3874969,5.5802345-7.4215717
			c0-4.3151951-3.1485443-8.2368202-9.3050766-8.2368202H3.61075v32.3288193h17.5700092
			c6.2127533,0,9.4175243-3.8794594,9.4175243-8.7709484C30.5842266,26.8734417,27.8714199,23.5281124,24.3714714,22.9939842z
			 M10.4981937,13.3937311h8.6303883c2.3332977,0,3.7810669,1.4056005,3.7810669,3.3874979
			c0,2.0802879-1.4618263,3.3874969-3.7810669,3.3874969h-8.6303883V13.3937311z M19.4237576,33.6062698h-8.9255638V26.240921
			h8.9255638c2.6706409,0,4.1184101,1.6445522,4.1184101,3.6826744
			C23.5562229,32.242836,21.9960079,33.6062698,19.4237576,33.6062698z M39.0740547,7.3918157
			c-2.0802879,0-3.8372879,1.7429452-3.8372879,3.8232341s1.4618225,3.4858904,3.3031616,3.4858904
			c0.3935661,0,0.7730789-0.0421686,0.9276962-0.1405602c-0.3935699,1.7429457-2.1786804,3.7810659-3.7388992,4.6103697
			l2.6706429,2.1786804c2.993927-2.1224556,4.9898834-5.3693943,4.9898834-9.0099001
			C43.3892517,9.1909847,41.3511276,7.3918157,39.0740547,7.3918157z"/>
	</g>
</g>
</svg>
