<?xml version="1.0" encoding="utf-8"?>
<!-- Generator: Adobe Illustrator 19.2.1, SVG Export Plug-In . SVG Version: 6.00 Build 0)  -->
<svg version="1.1" id="Layer_1" xmlns="http://www.w3.org/2000/svg" xmlns:xlink="http://www.w3.org/1999/xlink" x="0px" y="0px"
	 viewBox="0 0 47 47" enable-background="new 0 0 47 47" xml:space="preserve">
<path fill="#FFFFFF" d="M36.2691765,6.8797445H10.7329283c-2.4031153,0-4.2560415,1.8529263-4.2560415,4.2560415v25.5341396
	c0,2.4031143,1.8529263,4.2560425,4.2560415,4.2560425H36.267067c2.4031143,0,4.2560463-1.8529243,4.2560463-4.2560425V11.1357861
	C40.525219,8.7326736,38.6701813,6.8797445,36.2691765,6.8797445z M23.5263462,17.2152424
	c3.7754192,0,6.8362274,2.9659481,6.8362274,6.6233196s-3.0608082,6.6233196-6.8362274,6.6233196
	c-3.7733097,0-6.8341198-2.9680576-6.8341198-6.6233196C16.6922302,20.1811924,19.7530384,17.2152424,23.5263462,17.2152424z
	 M36.2691765,35.6074982c0,0.7462311-0.318306,1.0645332-1.064537,1.0645332H11.7974653
	c-0.7441206,0-1.064537-0.3183022-1.064537-1.0645332v-14.895092l2.6518583,0.5775909
	c-0.2845802,0.9254093-0.4384632,1.9035187-0.4384632,2.9195728c0,5.6578579,4.7387714,10.2511768,10.5779171,10.2511768
	c5.843359,0,10.5800228-4.5912113,10.5800228-10.2511768c0-1.0160542-0.1538849-1.9941635-0.4384613-2.9195728l2.6012611-0.5775909
	v14.895092H36.2691765z M36.2691765,16.4563656c0,0.588131-0.4764099,1.064537-1.064537,1.064537h-4.2560387
	c-0.588131,0-1.064537-0.4764061-1.064537-1.064537v-4.2560425c0-0.588131,0.4764061-1.064537,1.064537-1.064537h4.2560425
	c0.588131,0,1.064537,0.4764061,1.064537,1.064537L36.2691765,16.4563656z"/>
</svg>
