<?xml version="1.0" encoding="utf-8"?>
<!-- Generator: Adobe Illustrator 19.2.1, SVG Export Plug-In . SVG Version: 6.00 Build 0)  -->
<svg version="1.1" id="Layer_1" xmlns="http://www.w3.org/2000/svg" xmlns:xlink="http://www.w3.org/1999/xlink" x="0px" y="0px"
	 viewBox="0 0 47 47" enable-background="new 0 0 47 47" xml:space="preserve">
<g>
	<g>
		<path fill="#FFFFFF" d="M41.147541,24.1693153c-0.4379807-1.9025917-1.993679-3.305275-3.8641281-3.5149269
			c-4.4346695-0.4952011-8.9242249-0.4975548-13.3904381-0.4952011c-4.4685459-0.0023537-8.9581223,0-13.3927898,0.4952011
			c-1.8704414,0.2096519-3.4261394,1.6123352-3.8641171,3.5149269C6.0135498,26.877182,6.006546,29.8338165,6.006546,32.6210976
			c0,2.7896309,0,5.7462845,0.6224999,8.4541702c0.4379778,1.8996315,1.9919295,3.3029213,3.8647227,3.5125694
			c4.4340801,0.4952049,8.9213047,0.4975395,13.3898678,0.4952049c4.4691181,0.0023346,8.9581032,0,13.3904305-0.4952049
			c1.8728027-0.2096481,3.4285011-1.6129379,3.866478-3.5125694c0.622509-2.7078857,0.6248436-5.6645393,0.6248436-8.4541702
			C41.7653885,29.8338165,41.7700577,26.877182,41.147541,24.1693153L41.147541,24.1693153z M16.207922,26.2681007h-2.5893373
			v13.7530861h-2.404191V26.2681007H8.6729422v-2.2535477h7.5349798V26.2681007z M22.7361374,40.0211868h-2.1624622v-1.300499
			c-0.8595963,0.9834023-1.6742287,1.4645805-2.4678669,1.4645805c-0.6984196,0-1.1772614-0.2826309-1.3939342-0.887043
			c-0.1161938-0.3608818-0.1891918-0.9308434-0.1891918-1.7729378v-9.429945h2.1600933v8.7799969
			c0,0.5062866,0,0.7690811,0.0181065,0.8397446c0.0525551,0.3352013,0.2166538,0.5063057,0.5063038,0.5063057
			c0.433897,0,0.8876476-0.3334579,1.3664894-1.0108643v-9.1151829h2.1624622V40.0211868z M30.9461536,36.4420319
			c0,1.1019478-0.0753307,1.8979034-0.2189884,2.4018555c-0.2872982,0.8876495-0.8666,1.3413811-1.7267838,1.3413811
			c-0.768528,0-1.5101643-0.4262886-2.2331047-1.320919v1.1568375h-2.1601105V24.0145531h2.1601105v5.2282906
			c0.6978302-0.8601837,1.4394836-1.2934933,2.2331047-1.2934933c0.8601837,0,1.4394855,0.451416,1.7267838,1.3460484
			c0.1460114,0.4788418,0.2189884,1.2683811,0.2189884,2.3971863V36.4420319z M39.1013069,34.4530258H34.780529v2.1145592
			c0,1.1013603,0.3608818,1.6538048,1.1042709,1.6538048c0.5314178,0,0.841507-0.2896538,0.9647179-0.8672066
			c0.0186844-0.1161957,0.0478935-0.5973892,0.0478935-1.4640083h2.2038956v0.3147621
			c0,0.6978493-0.0251198,1.1766891-0.0455399,1.393364c-0.0730057,0.4794312-0.2417679,0.9127388-0.5045509,1.2934914
			c-0.5974083,0.8671875-1.4844475,1.2934761-2.6138496,1.2934761c-1.1294136,0-1.9913406-0.4058456-2.6144485-1.2204781
			c-0.4584198-0.5974083-0.6954956-1.5375938-0.6954956-2.8054047V31.982254c0-1.2724819,0.2096329-2.2056618,0.6680679-2.8100739
			c0.6254044-0.8146305,1.4850388-1.2228298,2.5893097-1.2228298c1.0838432,0,1.9434662,0.4081993,2.5478783,1.2228298
			c0.4543114,0.6044121,0.6709747,1.5375919,0.6709747,2.8100739v2.4707718H39.1013069z M39.1013069,34.4530258"/>
		<path fill="#FFFFFF" d="M35.8643608,29.8951397c-0.72295,0-1.0838318,0.551857-1.0838318,1.6538048v1.1042843h2.1606789
			v-1.1042843C36.9412079,30.4469967,36.5803146,29.8951397,35.8643608,29.8951397L35.8643608,29.8951397z M35.8643608,29.8951397"
			/>
		<path fill="#FFFFFF" d="M27.8458614,29.8951397c-0.3556442,0-0.7182903,0.1687698-1.0785847,0.5244122v7.2704201
			c0.3602943,0.3603134,0.7229404,0.5314178,1.0785847,0.5314178c0.623106,0,0.9402008-0.5314178,0.9402008-1.6106071v-5.0893002
			C28.7860622,30.4469967,28.4689674,29.8951397,27.8458614,29.8951397L27.8458614,29.8951397z M27.8458614,29.8951397"/>
		<path fill="#FFFFFF" d="M29.0529366,19.0595722c0.7959557,0,1.6240253-0.4835281,2.49296-1.4780312v1.3139324h2.1858082V6.8417273
			h-2.1858082v9.2138948c-0.483511,0.6820774-0.9419479,1.0219479-1.377573,1.0219479
			c-0.2943382,0-0.4654408-0.1734371-0.5133266-0.5133095c-0.0250931-0.0706615-0.0250931-0.3352013-0.0250931-0.8485098V6.8417273
			h-2.1782169v9.5309896c0,0.8508453,0.072998,1.4278126,0.1938801,1.7927933
			C27.8645554,18.776926,28.3480854,19.0595722,29.0529366,19.0595722L29.0529366,19.0595722z M29.0529366,19.0595722"/>
		<path fill="#FFFFFF" d="M13.8469296,12.3439131v6.5515604h2.4222984v-6.5515604l2.9128475-9.6215048h-2.4474258
			L15.080863,9.0730867l-1.7174625-6.3506784h-2.5484543c0.5086393,1.4984736,1.0406246,3.006268,1.5516167,4.5070763
			C13.144412,9.4836197,13.6279411,11.1853104,13.8469296,12.3439131L13.8469296,12.3439131z M13.8469296,12.3439131"/>
		<path fill="#FFFFFF" d="M22.4283619,19.0595722c1.094944,0,1.9458084-0.4105492,2.5478668-1.2315979
			c0.4590073-0.6044121,0.6779957-1.5533638,0.6779957-2.8357534v-4.2197781c0-1.2888231-0.2189884-2.2307711-0.6779957-2.8398342
			c-0.6020584-0.8239884-1.4529228-1.2368741-2.5478668-1.2368741c-1.087923,0-1.9364338,0.4128857-2.5408459,1.2368741
			c-0.4654217,0.6090631-0.6844101,1.5510111-0.6844101,2.8398342v4.2197781c0,1.2823896,0.2189884,2.2313414,0.6844101,2.8357534
			C20.4895935,18.6490231,21.3404388,19.0595722,22.4283619,19.0595722L22.4283619,19.0595722z M21.385973,10.334465
			c0-1.115386,0.3398895-1.6719112,1.0423889-1.6719112c0.7048531,0,1.0423889,0.5565252,1.0423889,1.6719112v5.0706234
			c0,1.1136208-0.3375359,1.6724815-1.0423889,1.6724815c-0.7024994,0-1.0423889-0.5588608-1.0423889-1.6724815V10.334465z
			 M21.385973,10.334465"/>
	</g>
</g>
</svg>
