<?xml version="1.0" encoding="utf-8"?>
<!-- Generator: Adobe Illustrator 19.2.1, SVG Export Plug-In . SVG Version: 6.00 Build 0)  -->
<svg version="1.1" id="Layer_1" xmlns="http://www.w3.org/2000/svg" xmlns:xlink="http://www.w3.org/1999/xlink" x="0px" y="0px"
	 viewBox="0 0 47 47" enable-background="new 0 0 47 47" xml:space="preserve">
<path fill="#FFFFFF" d="M38.3466949,17.3487301c0,8.6417904-4.8051186,15.0999393-11.8866329,15.0999393
	c-2.3802967,0-4.6158791-1.285696-5.3821011-2.7476349c0,0-1.2801266,5.075985-1.549139,6.0555573
	c-0.9536018,3.4619102-3.7606077,6.9256744-3.9776716,7.2095299c-0.1521311,0.1966591-0.4879322,0.1354332-0.5231819-0.1261597
	c-0.061224-0.4415512-0.7754984-4.8088264,0.0667896-8.372776c0.4229984-1.7884674,2.8329782-12.0053692,2.8329782-12.0053692
	s-0.7031422-1.4062862-0.7031422-3.4860268c0-3.265254,1.8923626-5.7030602,4.248539-5.7030602
	c2.0036774,0,2.9702682,1.502759,2.9702682,3.3060684c0,2.0148087-1.2819824,5.0277462-1.9443111,7.8180542
	c-0.552866,2.3376236,1.1725235,4.2448273,3.4767532,4.2448273c4.1743298,0,6.9850407-5.3616924,6.9850407-11.7140923
	c0-4.8273802-3.2504101-8.4432755-9.1668243-8.4432755c-6.6807804,0-10.8458338,4.9832211-10.8458338,10.5508461
	c0,1.9201908,0.567709,3.2745304,1.4545231,4.3208923c0.4063005,0.4823685,0.4638138,0.6753159,0.3153934,1.2281818
	c-0.107604,0.4063015-0.3469334,1.3803101-0.4508276,1.7680588c-0.1465664,0.5584335-0.5992479,0.7569427-1.1020222,0.551012
	C10.0874205,25.647295,8.653307,22.274437,8.653307,18.486002c0-6.2577829,5.2782068-13.7622986,15.7455673-13.7622986
	C32.812458,4.7274179,38.3466949,10.8126602,38.3466949,17.3487301z"/>
</svg>
