<?xml version="1.0" encoding="utf-8"?>
<!-- Generator: Adobe Illustrator 19.2.1, SVG Export Plug-In . SVG Version: 6.00 Build 0)  -->
<svg version="1.1" id="Layer_1" xmlns="http://www.w3.org/2000/svg" xmlns:xlink="http://www.w3.org/1999/xlink" x="0px" y="0px"
	 viewBox="0 0 152.9923553 172.4913788" enable-background="new 0 0 152.9923553 172.4913788" xml:space="preserve">
<linearGradient id="SVGID_1_" gradientUnits="userSpaceOnUse" x1="124.0946426" y1="167.8465271" x2="29.3363152" y2="3.7202852">
	<stop  offset="0" style="stop-color:#00ACB3"/>
	<stop  offset="0.3614265" style="stop-color:#00C3BC"/>
	<stop  offset="0.7059183" style="stop-color:#00D1C1"/>
	<stop  offset="1" style="stop-color:#00D6C3"/>
</linearGradient>
<path fill="url(#SVGID_1_)" d="M124.6954498,6.0548968H28.7355003c-7.0873451,0-12.8317652,5.7448249-12.8317652,12.8317642
	v133.7934875c0,7.0869446,5.7444201,12.8317719,12.8317652,12.8317719h95.9599457
	c7.0873871,0,12.8317719-5.7448273,12.8317719-12.8317719V18.8866615
	C137.5272217,11.7997217,131.7828369,6.0548968,124.6954498,6.0548968z M80.8567963,160.7987671h-8.2826004
	c-2.1384811,0-3.8716507-1.7336121-3.8716507-3.8716583c0-2.1380768,1.7331696-3.8716583,3.8716507-3.8716583h8.2826004
	c2.1380386,0,3.8716583,1.7335815,3.8716583,3.8716583C84.7284546,159.065155,82.9948349,160.7987671,80.8567963,160.7987671z
	 M123.6549683,148.3424835h-93.878952V21.1072636h93.878952V148.3424835z"/>
</svg>
