<?xml version="1.0" encoding="utf-8"?>
<!-- Generator: Adobe Illustrator 19.2.1, SVG Export Plug-In . SVG Version: 6.00 Build 0)  -->
<svg version="1.1" id="Layer_1" xmlns="http://www.w3.org/2000/svg" xmlns:xlink="http://www.w3.org/1999/xlink" x="0px" y="0px"
	 viewBox="0 0 306.9503174 306.9503174" enable-background="new 0 0 306.9503174 306.9503174" xml:space="preserve">
<linearGradient id="SVGID_1_" gradientUnits="userSpaceOnUse" x1="9.8908587" y1="153.4751587" x2="297.0595398" y2="153.4751587">
	<stop  offset="0" style="stop-color:#5036C1"/>
	<stop  offset="0.8433109" style="stop-color:#623ECA"/>
	<stop  offset="1" style="stop-color:#6640CC"/>
</linearGradient>
<path fill="url(#SVGID_1_)" d="M55.3056641,187.1296082L63.039032,70.8140717l180.8689117-0.0003891l7.7338867,116.3154831
	L55.3056641,187.1296082z M127.2363739,227.0082397l4.4127197-9.0546265l43.6522675-0.0001068l4.4099426,9.0546112
	L127.2363739,227.0082397z M55.0960617,57.8728561c-2.8258591,0.0000076-4.9388809,2.2912598-5.1340561,5.0775185
	l-9.325882,132.6992493L9.8940516,227.4950256l0.0000343,15.4898834c-0.1046543,4.2571716,2.3421612,6.0109558,6.4890146,6.0929718
	l274.1844177-0.0005951c4.1440125-0.0820465,6.5908203-1.8358307,6.4889832-6.0930023L297.0564575,227.4944l-30.7450562-31.8452606
	l-9.3264465-132.6992188c-0.1951904-2.7862549-2.3082428-5.0774994-5.1340942-5.0774918L55.0960617,57.8728561z"/>
</svg>
