<?xml version="1.0" encoding="utf-8"?>
<!-- Generator: Adobe Illustrator 19.2.1, SVG Export Plug-In . SVG Version: 6.00 Build 0)  -->
<svg version="1.1" id="Layer_1" xmlns="http://www.w3.org/2000/svg" xmlns:xlink="http://www.w3.org/1999/xlink" x="0px" y="0px"
	 viewBox="0 0 306.9503174 306.9503174" enable-background="new 0 0 306.9503174 306.9503174" xml:space="preserve">
<g>
	<path fill="#FF0066" d="M278.1156921,89.28936l-117.268219,102.4876938
		c-3.934967,3.4451141-10.8001862,3.4492645-14.7420197,0.0041504L28.8344269,89.2899094
		c1.7992687-6.9628143,8.9088745-12.1716309,17.4190903-12.1716461l214.4406738-0.000473
		C269.2067566,77.117775,276.3164062,82.326561,278.1156921,89.28936 M135.5746918,200.9829712l-45.3160095-39.6056061
		l-61.8063889,54.0184631c0.6933575,8.0702057,8.3880444,14.4367065,17.8015575,14.4366913l214.4406738-0.000473
		c9.4156494-0.0000153,17.1079407-6.3665619,17.8015137-14.4367676l-61.8042755-54.0163422l-45.3158417,39.6039581
		c-4.7804718,4.1799622-11.1365814,6.4813995-17.900589,6.4814148
		C146.7113037,207.464325,140.3551788,205.1629181,135.5746918,200.9829712 M227.22229,152.1753235l51.342804,44.8748169
		l-0.0001831-89.7480087L227.22229,152.1753235z M79.7325974,152.1756439L28.385294,107.2966995l0.0001965,89.7539749
		L79.7325974,152.1756439z"/>
</g>
</svg>
