<?xml version="1.0" encoding="utf-8"?>
<!-- Generator: Adobe Illustrator 19.2.1, SVG Export Plug-In . SVG Version: 6.00 Build 0)  -->
<svg version="1.1" id="Layer_1" xmlns="http://www.w3.org/2000/svg" xmlns:xlink="http://www.w3.org/1999/xlink" x="0px" y="0px"
	 viewBox="0 0 306.9503174 306.9503174" enable-background="new 0 0 306.9503174 306.9503174" xml:space="preserve">
<g>
	<linearGradient id="SVGID_1_" gradientUnits="userSpaceOnUse" x1="25.3589191" y1="91.1900635" x2="281.5914307" y2="91.1900635">
		<stop  offset="0" style="stop-color:#F2A111"/>
		<stop  offset="1" style="stop-color:#FDBC11"/>
	</linearGradient>
	<path fill="url(#SVGID_1_)" d="M278.0109253,115.262207L156.4813385,55.9698639
		c-1.8852997-0.9174232-4.1304626-0.9174232-6.0071411,0L28.9357281,115.262207
		c-2.6993217,1.3169861-4.1047249,4.2281952-3.3934383,7.0415649c0.7112141,2.8130264,3.3591423,4.7945633,6.401289,4.7945633
		h243.0680542c3.0421448,0,5.6815186-1.9815369,6.3927307-4.7945633
		C282.1242065,119.4904022,280.718811,116.5791931,278.0109253,115.262207z"/>
	<linearGradient id="SVGID_2_" gradientUnits="userSpaceOnUse" x1="31.8139935" y1="193.7929688" x2="275.833252" y2="193.7929688">
		<stop  offset="0" style="stop-color:#F2A111"/>
		<stop  offset="1" style="stop-color:#FDBC11"/>
	</linearGradient>
	<path fill="url(#SVGID_2_)" d="M266.2870483,236.1619568l-14.1390839,0.0000305
		c0.0257416-0.2609406,0.0857086-0.5177765,0.0857086-0.7868805l-0.0000153-5.4391327
		c0-4.0406647-3.4534912-7.3269348-7.7038727-7.3269196l-9.0320435,0.0000153l-0.0001526-74.1661224l5.0644836-0.0000153
		c3.6333618,0,6.5812531-2.8051758,6.5812378-6.2627716c0-3.4616394-2.9479065-6.2627563-6.5812683-6.2627411l-38.4763184,0.0000763
		c-3.6334534,0.0000153-6.5812531,2.8011475-6.5812531,6.2627716c0.0000153,3.4576111,2.9478302,6.2627563,6.5812836,6.2627563
		l5.0644989-0.0000153l0.0001526,74.1661224l-39.1529541,0.0000916L167.9972839,148.4431l5.0644989-0.0000153
		c3.6333466-0.0000153,6.5812378-2.8051758,6.5812225-6.2627716c0-3.4616394-2.9478912-6.2627563-6.5812531-6.2627563
		l-38.4763184,0.0000916c-3.6334381,0-6.5812378,2.8011322-6.5812378,6.2627716
		c0.0000153,3.4575958,2.9478302,6.2627563,6.5812683,6.2627411h5.0644073l0.0001678,74.1661224l-39.1532364,0.0000763
		l-0.0001602-74.1661224h5.0645065c3.6333389-0.0000153,6.5812378-2.8051758,6.5812302-6.2627869
		c-0.0000076-3.4616241-2.9479141-6.2627411-6.5812607-6.2627411l-38.4759674,0.0000916
		c-3.6334343,0-6.5812416,2.8011322-6.581234,6.2627716c0.0000076,3.4575958,2.9478264,6.2627563,6.5812569,6.2627411
		l5.0644379-0.0000153l0.0001602,74.1661224l-9.0320473,0.0000305c-4.2503738,0-7.7038574,3.2862854-7.703846,7.3269501
		l0.0000114,5.4391479c0,0.2690887,0.0514069,0.5259247,0.0857048,0.7868805l-14.1393738,0.0000305
		c-5.2701912,0-9.5462399,4.0692139-9.5462284,9.0842896l0.0000153,6.4217682l244.0192413-0.0005341v-6.4217682
		C275.8332214,240.2311401,271.5571594,236.1619568,266.2870483,236.1619568z"/>
</g>
</svg>
