<?xml version="1.0" encoding="utf-8"?>
<!-- Generator: Adobe Illustrator 19.2.1, SVG Export Plug-In . SVG Version: 6.00 Build 0)  -->
<svg version="1.1" id="Layer_1" xmlns="http://www.w3.org/2000/svg" xmlns:xlink="http://www.w3.org/1999/xlink" x="0px" y="0px"
	 viewBox="0 0 143.9927979 148.3675232" enable-background="new 0 0 143.9927979 148.3675232" xml:space="preserve">
<linearGradient id="SVGID_1_" gradientUnits="userSpaceOnUse" x1="19.8133984" y1="74.1837616" x2="124.1794052" y2="74.1837616">
	<stop  offset="0" style="stop-color:#D1005B"/>
	<stop  offset="0.0435278" style="stop-color:#D4005C"/>
	<stop  offset="0.3935672" style="stop-color:#EC0061"/>
	<stop  offset="0.7207361" style="stop-color:#FA0065"/>
	<stop  offset="1" style="stop-color:#FF0066"/>
</linearGradient>
<path fill="url(#SVGID_1_)" d="M111.1392975,22.0007629H32.8599548c-7.3665562,0-13.0465565,5.6800003-13.0465565,13.0465584
	v78.2728882c0,7.3665466,5.6800003,13.0465622,13.0465565,13.0465622h78.2728882
	c7.3665466,0,13.0465622-5.6800003,13.0465622-13.0465622V35.0473213
	C124.1858597,27.680769,118.4993896,22.0007629,111.1392975,22.0007629z M72.0771637,53.6834145
	c11.5732498,0,20.9559174,9.091877,20.9559174,20.303257s-9.3826675,20.3032684-20.9559174,20.3032684
	c-11.5667801,0-20.9494514-9.0983505-20.9494514-20.3032684C51.1277275,62.7752953,60.5103874,53.6834145,72.0771637,53.6834145z
	 M111.1392975,110.0634155c0,2.2875061-0.9757385,3.2632446-3.2632523,3.2632446H36.1232109
	c-2.281044,0-3.2632561-0.9757385-3.2632561-3.2632446V64.4036942l8.1290627,1.7705536
	c-0.8723564,2.8367767-1.3440742,5.8350906-1.3440742,8.9497223c0,17.3437195,14.5263329,31.4241714,32.425766,31.4241714
	c17.9123535,0,32.4322205-14.0739975,32.4322205-31.4241714c0-3.1146317-0.4717178-6.1129456-1.3440704-8.9497223
	l7.9739685-1.7705536v45.6597214H111.1392975z M111.1392975,51.3571358c0,1.8028679-1.4603882,3.2632523-3.2632523,3.2632523
	H94.8294983c-1.8028641,0-3.2632523-1.4603844-3.2632523-3.2632523V38.3105774c0-1.8028717,1.4603882-3.2632561,3.2632523-3.2632561
	h13.0465622c1.8028641,0,3.2632523,1.4603844,3.2632523,3.2632561L111.1392975,51.3571358z"/>
</svg>
