<?xml version="1.0" encoding="utf-8"?>
<!-- Generator: Adobe Illustrator 19.2.1, SVG Export Plug-In . SVG Version: 6.00 Build 0)  -->
<svg version="1.1" id="Layer_1" xmlns="http://www.w3.org/2000/svg" xmlns:xlink="http://www.w3.org/1999/xlink" x="0px" y="0px"
	 viewBox="0 0 143.9927979 148.3675232" enable-background="new 0 0 143.9927979 148.3675232" xml:space="preserve">
<linearGradient id="path12604_1_" gradientUnits="userSpaceOnUse" x1="11.0547714" y1="74.1837616" x2="132.9380646" y2="74.1837616">
	<stop  offset="0" style="stop-color:#F2A111"/>
	<stop  offset="1" style="stop-color:#FDBC11"/>
</linearGradient>
<path id="path12604_2_" fill="url(#path12604_1_)" d="M71.4564133,16.6866055
	c-7.3775787,0.0505047-15.0064278,2.0085087-20.9882851,6.73839c-4.4796333,3.5360775-8.0018196,8.2223358-10.2221069,13.4576912
	c-0.0033264,0.0126762-0.0065079,0.0254135-0.0095291,0.0381775c-2.1146202,5.3943977-1.9187927,11.1354332-1.632103,16.4546509
	c0,0-0.0001488,0.0063248,0,0.0095291c0.1742325,3.7387123,0.5861664,7.3581886,0.2386093,10.7947884
	c-0.0280685,0.1337814-0.0293159,0.1672974-0.0477219,0.2481537c-1.6630745,0.3014603-3.4732666,0.1921158-5.2685432-0.15271
	h-0.0286179c-1.2297516-0.2116776-2.5435524-0.7184448-4.0277634-1.1357918
	c-0.0252895-0.0070229-0.0507469-0.0133743-0.076355-0.0190887c-1.4404755-0.3293228-2.8564415,0.0901031-3.9418621,0.8971825
	c-0.013958,0.0090408-0.0335503,0.0193939-0.0477219,0.0286179c-0.0216846,0.0164948-0.0454025,0.0309219-0.0668125,0.0477219
	c-0.8834801,0.5850677-2.0936661,1.567421-2.1570473,3.2737503c-0.0027504,0.1119461,0.0068722,0.2241974,0.028616,0.334053
	c0.1907806,1.0027008,0.8075619,1.7358475,1.3553143,2.2143173c0.5477505,0.4784698,1.0652466,0.7944641,1.3839474,1.0403442
	c0.0248604,0.0198822,0.0503159,0.0389786,0.076355,0.0572662c2.6867886,1.8127289,5.6603432,2.6092224,8.2464123,3.6173553
	h0.0095291c1.7904015,0.7932739,3.3461876,2.0268021,3.7032509,3.5791702
	c0.4458466,1.9629898-0.3807983,4.2165375-1.4603004,6.404335v0.0095215
	c-2.9117012,5.7986526-7.2357368,10.8413162-12.5509663,14.5362167c-2.7865982,1.9226685-5.9302502,3.3579712-9.2104216,4.2473297
	c-0.045248,0.0138321-0.0898523,0.0297546-0.1336222,0.0477219c-0.6730738,0.2534637-2.2690592,0.4191818-3.2737503,1.9470673
	c-0.0714054,0.1067047-0.1292801,0.2224655-0.1718006,0.343605c-0.3387842,0.9824829,0.0477076,2.0373459,0.5249453,2.615181
	c0.4557219,0.5517807,0.964119,0.8728485,1.4030361,1.1071548c0.0224495,0.0131378,0.0443163,0.0251694,0.0668116,0.0381775
	c2.7618647,1.5961685,5.7781677,2.2881012,8.5327492,2.9969635c0.0126743,0.0033264,0.0254116,0.0065079,0.0381794,0.0095291
	c1.9846668,0.4519501,3.8143444,0.6933975,5.3067188,1.3362198c0.0730667,0.1228867,0.2225075,0.6286621,0.5726681,1.4698486
	c0.4891376,1.5270233,0.7114887,3.3302307,1.2789574,5.2208176c0.1551685,0.5233154,0.6115341,0.9454575,1.1453362,1.0594406
	c1.2534561,0.266304,1.942852-0.1637573,2.0520573-0.1718063c0.0511856-0.0037842,0.102169-0.0101624,0.1527138-0.0190887
	c4.6119385-0.8083878,9.2140999-1.5252304,13.438591-0.4581299c0.0030518,0.0009155,0.0064125-0.0009155,0.0064125-0.0009155
	c4.4365768,1.1687393,8.2894516,4.2507095,12.6303902,6.9015579c0.007637,0.0047073,0.0113029,0.0143814,0.0189362,0.0190887
	v-0.0095215c2.8814201,1.8283997,6.2120857,3.6188049,10.059864,3.7509766v0.0095215c0,0,0.0253448-0.0003052,0.0381775,0
	c2.90625,0.1646118,5.7587509-0.0200653,8.5422745-0.2099762h0.0477371c2.383461-0.2360992,4.6976166-1.0292816,6.7192993-2.3288574
	c0.0287094-0.0163269,0.0572968-0.0313263,0.0858841-0.0477142c4.5645981-2.6154709,8.6208038-5.7670975,13.0663834-7.7405624
	c0,0,0.012825-0.0072403,0.0189438-0.0095215c1.4418335-0.5227585,3.243248-0.4932785,5.2494507-0.6299362
	c0.0189438-0.000618,0.0381775,0.000618,0.0572662,0c3.6811676-0.1136475,7.3693314,0.083725,11.0238342,0.57267
	c0.1265945,0.0159378,0.2551804,0.0159378,0.3817749,0c0.47995-0.0569382,1.004509-0.3791962,1.2598724-0.7062912
	s0.3289413-0.5934906,0.3817749-0.7826462c0.1057358-0.3783112,0.2037201-0.5592346,0.0287094-0.2481613
	c0.0554962-0.0965347,0.1003952-0.1991425,0.1336212-0.3054199c0.671051-2.2234879,1.0361481-4.2355957,2.1188736-5.4880676
	c0.4865036-0.4755859,1.3237076-0.7143402,2.2715836-0.6967392c0.0700989,0.0015259,0.1403122-0.0015335,0.2099762-0.0095291
	c3.1771317-0.3760757,6.0489578-1.5231323,8.7713776-2.5006485c0.0322418-0.011673,0.0640869-0.0243988,0.0954742-0.0381927
	c1.0113525-0.4408569,2.5182953-0.946701,3.5505371-2.3956604c0.0054932-0.0077591,0.013443-0.0112686,0.0189362-0.0190887
	l-0.0094604-0.0095291c0.8682556-1.213295,0.4651642-2.8785095-0.7635651-3.6364365l0.0189362-0.0190887
	c-0.0389404-0.0264816-0.0755615-0.0415268-0.1145325-0.0668106c-0.010376-0.0056763-0.0180054-0.0135651-0.0287018-0.0190887
	v0.0095215c-1.473938-0.9468307-2.9507446-1.0784225-3.8845749-1.4221268
	c-0.0189667-0.0067444-0.0380554-0.0130997-0.0572662-0.0190887c-6.3183441-2.0266876-11.7825394-6.3897781-15.8628998-11.7015076
	c-2.2653809-2.959938-4.1812057-6.1762619-5.4499054-9.6112671c-0.0042725-0.0125198-0.0054932-0.0256653-0.0094681-0.0381775
	c-0.4966736-1.4915466-0.5215683-3.1180725,0.2099762-4.1041183c0.0096893-0.009407,0.0192795-0.0189438,0.0287094-0.0286179
	c1.141243-1.6396255,3.2354965-2.6934586,5.4689941-3.521904c0.0091629-0.0031815,0.0195465-0.0063553,0.0287094-0.0095291
	c2.468399-0.8587189,5.1696777-1.8590698,7.3969421-3.8368759c0.0097122-0.009407,0.0192719-0.0189362,0.0287018-0.0286179
	c0.3446121-0.3258743,0.7590408-0.7501297,1.068985-1.3839493c0.309967-0.6338196,0.4569397-1.6218948,0.0477371-2.4815598
	c0.0000076-0.0031815,0.0000076-0.0063553,0.0000076-0.0063553c-0.6427383-1.3273315-1.7635117-2.0086365-2.5960999-2.5038223
	l-0.0063171-0.0000114c-1.3981094-0.8142242-3.0212173-0.8670464-4.4317856-0.4104004l-0.0064087-0.0009193
	c-0.0125275,0.0040016-0.0222931,0.0073318-0.0317688,0.0104485c-1.5238113,0.4637413-2.7678604,1.0182533-3.9227905,1.1644249
	c-0.0256195,0.0057144-0.0510635,0.0120621-0.076355,0.0190887c-1.641243,0.2925186-3.230545,0.3627777-4.4668045-0.0954437
	c-0.0116043-0.1852341-0.0174103-0.5467491-0.0667953-0.9926262h0.0094681
	c-0.0912552-2.7229347,0.1394348-5.529995,0.1813278-8.4373016c0.0000916-0.0064735-0.0000916-0.0126152,0-0.0190887
	c0.1255875-4.4173851,0.3038406-8.9650612-0.3435974-13.5435905c-0.0027542-0.0223274-0.0058365-0.0446129-0.0094757-0.0668106
	c-1.4096375-7.7233887-6.3182831-14.3754425-12.54142-18.8025875c-4.5239487-3.2099552-9.8948441-5.001545-15.3474884-5.5071545
	l-0.0064163,0.0003052c-1.8329086-0.1850471-3.6602173-0.2505836-5.481575-0.229372L71.4564133,16.6866055z"/>
</svg>
