<?xml version="1.0" encoding="utf-8"?>
<!-- Generator: Adobe Illustrator 19.2.1, SVG Export Plug-In . SVG Version: 6.00 Build 0)  -->
<svg version="1.1" id="Layer_1" xmlns="http://www.w3.org/2000/svg" xmlns:xlink="http://www.w3.org/1999/xlink" x="0px" y="0px"
	 viewBox="0 0 143.9927979 148.3675232" enable-background="new 0 0 143.9927979 148.3675232" xml:space="preserve">
<path fill="#D5E5EE" d="M117.5077667,54.0926094c0,26.4907188-14.7297058,46.2876625-36.4375305,46.2876625
	c-7.296608,0-14.1496124-3.9411926-16.4984055-8.4226532c0,0-3.9241257,15.5600281-4.748764,18.5628357
	c-2.9231911,10.6122055-11.5278397,21.2301102-12.1932335,22.1002426c-0.4663467,0.6028442-1.4957161,0.4151611-1.603775-0.386734
	c-0.1876755-1.3535461-2.377224-14.7410812,0.2047386-25.6660843c1.296669-5.4824066,8.6842728-36.801506,8.6842728-36.801506
	s-2.155426-4.3108597-2.155426-10.686142c0-10.0093765,5.8008881-17.4822769,13.0235596-17.4822769
	c6.1421127,0,9.1051178,4.6065865,9.1051178,10.1344872c0,6.176239-3.9298172,15.412159-5.9601288,23.9656258
	c-1.6947708,7.165802,3.5942764,13.0121841,10.6577148,13.0121841c12.7960739,0,21.4120941-16.4358444,21.4120941-35.9086227
	c0-14.7979507-9.9638824-25.8821907-28.1001816-25.8821907c-20.4794006,0-33.2470436,15.2756691-33.2470436,32.3427849
	c0,5.8861923,1.7402649,10.0378113,4.4587212,13.2453537c1.2454834,1.4786606,1.4217873,2.0701218,0.9668159,3.7648926
	c-0.3298531,1.2454834-1.0634956,4.2312317-1.3819771,5.4198456c-0.4492874,1.7118301-1.8369446,2.320343-3.3781624,1.6890869
	c-9.4349728-3.8501968-13.8311329-14.1894226-13.8311329-25.802578c0-19.1827354,16.1799259-42.187233,48.2667923-42.187233
	C100.5430069,15.402976,117.5077667,34.0568047,117.5077667,54.0926094z"/>
</svg>
