<?xml version="1.0" encoding="utf-8"?>
<!-- Generator: Adobe Illustrator 19.2.1, SVG Export Plug-In . SVG Version: 6.00 Build 0)  -->
<svg version="1.1" id="Layer_1" xmlns="http://www.w3.org/2000/svg" xmlns:xlink="http://www.w3.org/1999/xlink" x="0px" y="0px"
	 viewBox="0 0 508.3996582 346.8315125" enable-background="new 0 0 508.3996582 346.8315125" xml:space="preserve">
<linearGradient id="SVGID_1_" gradientUnits="userSpaceOnUse" x1="31.3663082" y1="174.4741516" x2="477.0333862" y2="174.4741516">
	<stop  offset="0" style="stop-color:#5036C1"/>
	<stop  offset="0.8433109" style="stop-color:#623ECA"/>
	<stop  offset="1" style="stop-color:#6640CC"/>
</linearGradient>
<path fill="url(#SVGID_1_)" d="M101.8473206,226.7033844l12.0020752-180.5140991h280.6967773l12.0020752,180.5140991H101.8473206z
	 M213.4789581,288.5926819l6.8482971-14.0521851h67.7454681l6.8439026,14.0521851H213.4789581z M101.5224686,26.105341
	c-4.3855515,0-7.6648254,3.5558701-7.9677353,7.8799572L79.0811234,239.9258728l-47.7098083,49.421875v24.0393066
	c-0.1624298,6.606842,3.6348629,9.3286133,10.070509,9.4559021h425.5163269
	c6.4312134-0.1272888,10.2285156-2.8490601,10.0704956-9.4559021v-24.0393066l-47.7142029-49.421875L414.8408508,33.9852982
	c-0.3029175-4.3240871-3.5822144-7.8799572-7.9677429-7.8799572H101.5224686z"/>
</svg>
