<?xml version="1.0" encoding="utf-8"?>
<!-- Generator: Adobe Illustrator 19.2.1, SVG Export Plug-In . SVG Version: 6.00 Build 0)  -->
<svg version="1.1" id="Layer_1" xmlns="http://www.w3.org/2000/svg" xmlns:xlink="http://www.w3.org/1999/xlink" x="0px" y="0px"
	 viewBox="0 0 449.4108276 346.8315125" enable-background="new 0 0 449.4108276 346.8315125" xml:space="preserve">
<linearGradient id="SVGID_1_" gradientUnits="userSpaceOnUse" x1="19.4389744" y1="174.4741211" x2="429.9718323" y2="174.4741211">
	<stop  offset="0" style="stop-color:#CB005B"/>
	<stop  offset="0.1080288" style="stop-color:#D4005D"/>
	<stop  offset="0.4344716" style="stop-color:#EC0062"/>
	<stop  offset="0.7395898" style="stop-color:#FA0065"/>
	<stop  offset="1" style="stop-color:#FF0066"/>
</linearGradient>
<path fill="url(#SVGID_1_)" d="M429.9718323,114.8469391L224.7062378,25.2663269L19.4389744,114.8469391l38.2543488,21.7308197
	l5.0126953,37.7445831c-3.5310898,1.7836304-5.9565849,5.4336548-5.9565849,9.6597748
	c0,3.1956329,1.3928108,6.0585327,3.5946693,8.0400543v21.9955597h1.7480011l-9.8022995,100.2999268
	c-0.0405617,0.3765869-0.0465889,0.8085022,0,1.1960449c0.5771866,4.8301697,7.8882141,8.4774475,16.3283997,8.1474915
	c8.4412766-0.3294373,14.8166351-4.5133667,14.2388992-9.3435364l-9.6510086-100.2999268h1.6005478V192.022171
	c2.2018585-1.9815216,3.5941238-4.8444214,3.5941238-8.0400543c0-4.2995758-2.5121002-8.0022278-6.1424026-9.7491302
	l2.7264252-30.4505463l27.8726654,15.1378479v5.0982056v5.0976562v47.9360504h0.0043869
	c0,0.0367279-0.0043869,0.0729065-0.0043869,0.1090851c0,40.0949707,54.5531464,72.5862427,121.8487854,72.5862427
	c67.2950745,0,121.8471375-32.491272,121.8471375-72.5862427c0-0.0361786-0.0038452-0.0723572-0.0054932-0.1090851h0.0054932
	v-47.9349518v-5.0987549l0.8134155-9.0173645L429.9718323,114.8469391z"/>
</svg>
