<?xml version="1.0" encoding="utf-8"?>
<!-- Generator: Adobe Illustrator 19.2.1, SVG Export Plug-In . SVG Version: 6.00 Build 0)  -->
<svg version="1.1" id="Layer_1" xmlns="http://www.w3.org/2000/svg" xmlns:xlink="http://www.w3.org/1999/xlink" x="0px" y="0px"
	 viewBox="0 0 143.9927979 148.3675232" enable-background="new 0 0 143.9927979 148.3675232" xml:space="preserve">
<linearGradient id="SVGID_1_" gradientUnits="userSpaceOnUse" x1="12.9912071" y1="74.1837616" x2="131.0016022" y2="74.1837616">
	<stop  offset="0" style="stop-color:#00ACB3"/>
	<stop  offset="0.3614265" style="stop-color:#00C3BC"/>
	<stop  offset="0.7059183" style="stop-color:#00D1C1"/>
	<stop  offset="1" style="stop-color:#00D6C3"/>
</linearGradient>
<path fill="url(#SVGID_1_)" d="M86.9170227,26.5025272C76.2604446,30.3831329,69.5246811,40.382885,70.2887421,51.3276634
	l0.2546844,4.2224159l-4.2626266-0.5160713c-15.5157013-1.9838676-29.0743561-8.7062187-40.5888252-19.9995117l-5.6298904-5.6030846
	l-1.4409771,4.1352844c-3.0696316,9.2222977-1.1058712,18.9673653,5.2880707,25.5221634
	c3.4114437,3.6192131,2.6406879,4.1352844-3.2371845,1.9838638c-2.0441875-0.6903305-3.8403893-1.2064095-4.007946-0.945015
	c-0.5965004,0.6032028,1.4476871,8.4448318,3.0696297,11.5546722c2.2184467,4.316246,6.7357597,8.5319748,11.6820202,11.0386047
	l4.1821995,1.9838638l-4.9529572,0.0737305c-4.7720013,0-4.9462585,0.0871353-4.4301891,1.9034424
	c1.7023697,5.6030884,8.4381313,11.5546875,15.9446507,14.1417542l5.2880707,1.8096085l-4.6044464,2.7613297
	c-6.8228874,3.9744339-14.8387794,6.2129822-22.8546696,6.3738403c-3.8403873,0.0871353-6.9971485,0.4289398-6.9971485,0.6903381
	c0,0.8578873,10.4085922,5.6835022,16.4540234,7.5869446c18.1630955,5.6030807,39.7376404,3.1835709,55.9369659-6.3805389
	c11.5144653-6.809494,23.0222244-20.3480225,28.3974304-33.457634c2.9020767-6.9770432,5.7974396-19.738121,5.7974396-25.8572731
	c0-3.9677315,0.2546844-4.4838028,5.0266876-9.2222977c2.814949-2.7613258,5.4556198-5.7773438,5.9717026-6.6352272
	c0.8578949-1.6420479,0.7640686-1.6420479-3.5789948-0.1742592c-7.2451324,2.5870667-8.2705765,2.2452545-4.6848679-1.6353493
	c2.6406784-2.7613258,5.7974472-7.7612057,5.7974472-9.2222977c0-0.2546864-1.2801361,0.1742573-2.7278214,0.945015
	c-1.5348129,0.8645878-4.9462662,2.1581211-7.5065231,2.9288845l-4.6044464,1.4677906l-4.1754837-2.8551674
	c-2.3055725-1.5482197-5.5360565-3.277401-7.2451248-3.7934723C97.4931793,24.9476089,90.8445435,25.1218681,86.9170227,26.5025272z
	"/>
</svg>
