<?xml version="1.0" encoding="utf-8"?>
<!-- Generator: Adobe Illustrator 19.2.1, SVG Export Plug-In . SVG Version: 6.00 Build 0)  -->
<svg version="1.1" id="Layer_1" xmlns="http://www.w3.org/2000/svg" xmlns:xlink="http://www.w3.org/1999/xlink" x="0px" y="0px"
	 viewBox="0 0 129.7379456 148.3675232" enable-background="new 0 0 129.7379456 148.3675232" xml:space="preserve">
<path fill="#FFFFFF" d="M106.4799805,18.7104263H23.2648296c-7.831048,0-13.869194,6.0381451-13.869194,13.869194v83.2082825
	c0,7.8310394,6.038146,13.8692017,13.869194,13.8692017h83.2082825c7.8310394,0,13.8692017-6.038147,13.8692017-13.8692017
	V32.5796204C120.3491821,24.7485771,114.3041534,18.7104263,106.4799805,18.7104263z M64.954834,52.3907852
	c12.3029861,0,22.2772598,9.6651573,22.2772598,21.5834656S77.2578201,95.5577087,64.954834,95.5577087
	c-12.2961159,0-22.2703972-9.6720352-22.2703972-21.5834579C42.6844521,62.0559502,52.6587257,52.3907852,64.954834,52.3907852z
	 M106.4799805,112.3257599c0,2.4317474-1.037262,3.4690094-3.4690094,3.4690094H26.7338448
	c-2.4248734,0-3.4690151-1.037262-3.4690151-3.4690094V63.7870216l8.6416283,1.8821983
	c-0.9273624,3.0156403-1.4288235,6.2030106-1.4288235,9.5140381c0,18.4373016,15.4422722,33.4055786,34.4703331,33.4055786
	c19.0418015,0,34.4772034-14.9614182,34.4772034-33.4055786c0-3.3110275-0.5014648-6.4983978-1.4288254-9.5140381
	l8.4767532-1.8821983v48.5387383H106.4799805z M106.4799805,49.9178276c0,1.9165459-1.5524673,3.469017-3.4690094,3.469017
	H89.1417847c-1.9165421,0-3.4690094-1.5524712-3.4690094-3.469017v-13.869194c0-1.9165459,1.5524673-3.4690132,3.4690094-3.4690132
	h13.8692017c1.9165344,0,3.4690094,1.5524673,3.4690094,3.4690132L106.4799805,49.9178276z"/>
</svg>
