<?xml version="1.0" encoding="utf-8"?>
<!-- Generator: Adobe Illustrator 19.2.1, SVG Export Plug-In . SVG Version: 6.00 Build 0)  -->
<svg version="1.1" id="Layer_1" xmlns="http://www.w3.org/2000/svg" xmlns:xlink="http://www.w3.org/1999/xlink" x="0px" y="0px"
	 viewBox="0 0 129.7379456 148.3675232" enable-background="new 0 0 129.7379456 148.3675232" xml:space="preserve">
<path fill="#FFFFFF" d="M79.7866364,26.5119629C69.1321716,30.3918018,62.3977432,40.389576,63.1616478,51.3321838
	l0.2546387,4.2215843l-4.2617874-0.5159683c-15.5126305-1.9834785-29.0686035-8.7044983-40.5807915-19.9955559l-5.6287766-5.6019745
	l-1.4406929,4.1344643c-3.0690241,9.2204742-1.1056528,18.9636116,5.2870255,25.5171127
	c3.4107685,3.6184998,2.6401634,4.1344681-3.2365446,1.9834709c-2.0437841-0.6901932-3.8396292-1.2061691-4.0071526-0.944828
	c-0.596384,0.6030846,1.4474001,8.4431648,3.0690203,11.5523872c2.218008,4.3153915,6.7344284,8.5302811,11.6797085,11.0364151
	l4.1813736,1.9834747l-4.9519768,0.0737228c-4.7710571,0-4.945282,0.0871124-4.4293118,1.9030609
	c1.7020321,5.6019745,8.4364605,11.5523987,15.9414921,14.1389542l5.2870255,1.8092499l-4.6035347,2.760788
	c-6.821537,3.9736481-14.8358421,6.2117538-22.8501472,6.3725739c-3.8396292,0.0871201-6.9957647,0.4288559-6.9957647,0.6902008
	c0,0.8577194,10.4065323,5.6823807,16.4507675,7.5854416c18.159502,5.6019745,39.7297745,3.1829453,55.9258957-6.3792725
	c11.5121918-6.8081436,23.0176697-20.3440018,28.3918076-33.4510117c2.9015045-6.9756622,5.7962952-19.7342148,5.7962952-25.8521576
	c0-3.9669495,0.2546387-4.4829178,5.0256958-9.2204742c2.8143845-2.7607765,5.4545441-5.7761993,5.9705276-6.6339111
	c0.8577194-1.6417274,0.7639084-1.6417274-3.5783005-0.1742249c-7.2436905,2.5865555-8.2689285,2.2448082-4.6839371-1.6350288
	c2.6401596-2.7607765,5.7962952-7.7596684,5.7962952-9.2204723c0-0.2546349-1.2798767,0.1742249-2.727272,0.9448299
	c-1.5345154,0.8644161-4.9452896,2.1576939-7.505043,2.9283047l-4.6035309,1.4675007l-4.1746597-2.8546028
	c-2.3051147-1.5479126-5.5349655-3.2767544-7.2436905-3.7927227C90.3607025,24.9573536,83.7133789,25.1315784,79.7866364,26.5119629
	z"/>
</svg>
