<?xml version="1.0" encoding="utf-8"?>
<!-- Generator: Adobe Illustrator 19.2.1, SVG Export Plug-In . SVG Version: 6.00 Build 0)  -->
<svg version="1.1" id="Layer_1" xmlns="http://www.w3.org/2000/svg" xmlns:xlink="http://www.w3.org/1999/xlink" x="0px" y="0px"
	 viewBox="0 0 129.7379456 148.3675232" enable-background="new 0 0 129.7379456 148.3675232" xml:space="preserve">
<path fill="#FFFFFF" d="M114.3808289,56.1347847c0,28.8192787-16.0244598,50.3563805-39.640419,50.3563805
	c-7.9379883,0-15.3933716-4.2876282-17.9486237-9.1630096c0,0-4.2690582,16.9277649-5.1661835,20.1945267
	c-3.1801453,11.5450211-12.5411491,23.0962448-13.2650337,24.0428696c-0.5073357,0.6558228-1.6271896,0.4516449-1.7447433-0.4207306
	c-0.204174-1.4725189-2.5861893-16.0368347,0.2227364-27.9221497c1.4106445-5.9643173,9.4476242-40.0363922,9.4476242-40.0363922
	s-2.3448906-4.6897812-2.3448906-11.6254578c0-10.8892059,6.310791-19.0189819,14.1683388-19.0189819
	c6.6820145,0,9.9054718,5.0115089,9.9054718,11.0253143c0,6.7191391-4.2752533,16.7668991-6.4840317,26.0722275
	c-1.8437424,7.7956772,3.9102173,14.1559677,11.5945358,14.1559677c13.9208527,0,23.2942276-17.8805771,23.2942276-39.0650253
	c0-16.0987015-10.8397141-28.1572552-30.5702057-28.1572552c-22.2795563,0-36.1694832,16.6184139-36.1694832,35.1857376
	c0,6.4035912,1.8932343,10.9201393,4.850647,14.4096336c1.3549652,1.6086349,1.5467644,2.2520828,1.0517998,4.0958252
	c-0.3588486,1.3549652-1.1569786,4.6031647-1.5034523,5.8962555c-0.488781,1.8623047-1.9984169,2.5243073-3.675106,1.8375549
	c-10.2643147-4.1886292-15.0469017-15.4366837-15.0469017-28.0706367c0-20.8689156,17.6021538-45.8955231,52.5094795-45.8955231
	C95.9248505,14.044302,114.3808289,34.3378181,114.3808289,56.1347847z"/>
</svg>
