<?xml version="1.0" encoding="utf-8"?>
<!-- Generator: Adobe Illustrator 19.2.1, SVG Export Plug-In . SVG Version: 6.00 Build 0)  -->
<svg version="1.1" id="Layer_1" xmlns="http://www.w3.org/2000/svg" xmlns:xlink="http://www.w3.org/1999/xlink" x="0px" y="0px"
	 viewBox="0 0 225.0225067 225.0225067" enable-background="new 0 0 225.0225067 225.0225067" xml:space="preserve">
<g>
	<linearGradient id="SVGID_1_" gradientUnits="userSpaceOnUse" x1="11.9820395" y1="63.6380196" x2="213.0404663" y2="63.6380196">
		<stop  offset="0" style="stop-color:#F2A111"/>
		<stop  offset="1" style="stop-color:#FDBC11"/>
	</linearGradient>
	<path fill="url(#SVGID_1_)" d="M210.2309418,82.5267487l-95.3608322-46.5250282
		c-1.4793472-0.7198792-3.2410583-0.7198792-4.7136383,0L14.78866,82.5267487
		c-2.1180811,1.0334015-3.2208614,3.317749-2.662735,5.525322c0.5580692,2.2072983,2.6358242,3.7621613,5.0229111,3.7621613
		h190.7286377c2.387085,0,4.4581299-1.554863,5.0162048-3.7621613
		C213.4585114,85.8444977,212.3557434,83.5601501,210.2309418,82.5267487z"/>
	<linearGradient id="SVGID_2_" gradientUnits="userSpaceOnUse" x1="17.0479622" y1="144.1475525" x2="208.522995" y2="144.1475525">
		<stop  offset="0" style="stop-color:#F2A111"/>
		<stop  offset="1" style="stop-color:#FDBC11"/>
	</linearGradient>
	<path fill="url(#SVGID_2_)" d="M201.0323792,177.3935394h-11.0945435c0.0202026-0.2047577,0.0672455-0.4062958,0.0672455-0.6174469
		v-4.2679291c0-3.1706085-2.7098389-5.7492523-6.0449982-5.7492523h-7.0871735v-58.1960678h3.9739532
		c2.8509979,0,5.1641235-2.2011261,5.1641235-4.9142075c0-2.7162476-2.3131256-4.9142151-5.1641235-4.9142151h-30.1912842
		c-2.851059,0-5.1641235,2.1979675-5.1641235,4.9142151c0,2.7130814,2.3130646,4.9142075,5.1641235,4.9142075h3.9739685v58.1960678
		h-30.722229v-58.1960678h3.9739609c2.8510056,0,5.1641159-2.2011261,5.1641159-4.9142075
		c0-2.7162476-2.3131104-4.9142151-5.1641159-4.9142151H97.6900024c-2.8510513,0-5.1641235,2.1979675-5.1641235,4.9142151
		c0,2.7130814,2.3130722,4.9142075,5.1641235,4.9142075h3.9738998v58.1960678h-30.722435v-58.1960678h3.9739761
		c2.8509827,0,5.1641159-2.2011261,5.1641159-4.9142075c0-2.7162476-2.3131332-4.9142151-5.1641159-4.9142151H44.7244339
		c-2.8510551,0-5.1641197,2.1979675-5.1641197,4.9142151c0,2.7130814,2.3130646,4.9142075,5.1641197,4.9142075h3.9739151v58.1960678
		h-7.0871925c-3.3351479,0-6.045002,2.5786438-6.045002,5.7492523v4.2679291c0,0.2111511,0.0403366,0.4126892,0.0672455,0.6174469
		H24.5386333c-4.1353703,0-7.4906712,3.1929779-7.4906712,7.1281738v5.0389709H208.522995v-5.0389709
		C208.522995,180.5865173,205.1676941,177.3935394,201.0323792,177.3935394z"/>
</g>
</svg>
