<?xml version="1.0" encoding="utf-8"?>
<!-- Generator: Adobe Illustrator 19.2.1, SVG Export Plug-In . SVG Version: 6.00 Build 0)  -->
<svg version="1.1" id="Layer_1" xmlns="http://www.w3.org/2000/svg" xmlns:xlink="http://www.w3.org/1999/xlink" x="0px" y="0px"
	 viewBox="0 0 225.0225067 225.0225067" enable-background="new 0 0 225.0225067 225.0225067" xml:space="preserve">
<g id="Life_x5F_Her_Story_2_">
	<linearGradient id="SVGID_1_" gradientUnits="userSpaceOnUse" x1="36.5121269" y1="112.5112534" x2="188.510376" y2="112.5112534">
		<stop  offset="0" style="stop-color:#00ACB3"/>
		<stop  offset="0.3614265" style="stop-color:#00C3BC"/>
		<stop  offset="0.7059183" style="stop-color:#00D1C1"/>
		<stop  offset="1" style="stop-color:#00D6C3"/>
	</linearGradient>
	<path fill="url(#SVGID_1_)" d="M186.961731,198.6029358c1.507309-2.4053192,1.548645-5.2774658,1.548645-8.1915741
		c0-31.651413-54.7665405-27.6084137-54.7665405-46.4954681v-4.0620728h0.0470734
		c27.0748138,0,36.4321594-11.6685486,36.4321594-11.6685486c-30.3997803-19.8410416,4.1918182-94.8359375-42.5593109-94.8359375
		c0,0-3.7167358-6.9297676-16.0193634-6.9297676c-65.6260986,0-26.5399399,81.9246597-56.9397202,101.7657013
		c0,0,9.3573532,11.6685486,36.4321594,11.6685486h0.0470657v4.0620728c0,18.8870544-54.671772,14.8440552-54.671772,46.5011902
		c0,2.9090271,0.047699,5.7805328,1.5499115,8.1858521H186.961731z"/>
</g>
</svg>
