<?xml version="1.0" encoding="utf-8"?>
<!-- Generator: Adobe Illustrator 19.2.1, SVG Export Plug-In . SVG Version: 6.00 Build 0)  -->
<svg version="1.1" id="Layer_1" xmlns="http://www.w3.org/2000/svg" xmlns:xlink="http://www.w3.org/1999/xlink" x="0px" y="0px"
	 viewBox="0 0 259.9254456 225.0225067" enable-background="new 0 0 259.9254456 225.0225067" xml:space="preserve">
<linearGradient id="SVGID_1_" gradientUnits="userSpaceOnUse" x1="15.0787735" y1="113.5112534" x2="244.8466644" y2="113.5112534">
	<stop  offset="0" style="stop-color:#CB005B"/>
	<stop  offset="0.1080288" style="stop-color:#D4005D"/>
	<stop  offset="0.4344716" style="stop-color:#EC0062"/>
	<stop  offset="0.7395898" style="stop-color:#FA0065"/>
	<stop  offset="1" style="stop-color:#FF0066"/>
</linearGradient>
<path fill="url(#SVGID_1_)" d="M244.8466644,80.1389847L129.9631805,30.0023212L15.0787735,80.1389847l21.4102707,12.1623459
	L39.2945595,113.4263c-1.976284,0.9982681-3.3337936,3.0411224-3.3337936,5.4064102
	c0,1.7885284,0.7795334,3.3908539,2.0118752,4.4998627v12.310524h0.9783249l-5.4861717,56.1360779
	c-0.0227013,0.2107697-0.0260773,0.4525146,0,0.6694031c0.32304,2.7033539,4.4148903,4.7446747,9.13871,4.5599976
	c4.7244339-0.1843719,8.2926064-2.5260315,7.9692612-5.2294006l-5.4015007-56.1360779h0.8958015v-12.310524
	c1.2323418-1.1090088,2.0115662-2.7113342,2.0115662-4.4998627c0-2.406395-1.4059792-4.4787064-3.4377937-5.4564133
	l1.5259323-17.0426254l15.5998306,8.472374v2.8533783v2.8530655v26.8289566h0.0024567
	c0,0.0205536-0.0024567,0.040802-0.0024567,0.0610504c0,22.4404297,30.5324173,40.6252136,68.196579,40.6252136
	c37.6638489,0,68.1956635-18.1847839,68.1956635-40.6252136c0-0.0202484-0.0021515-0.0404968-0.003067-0.0610504h0.003067
	v-26.8283463v-2.8536758l0.4552612-5.0468597L244.8466644,80.1389847z"/>
</svg>
